<?xml version="1.0" standalone="no"?>
<!DOCTYPE svg PUBLIC "-//W3C//DTD SVG 20010904//EN"
 "http://www.w3.org/TR/2001/REC-SVG-20010904/DTD/svg10.dtd">
<svg version="1.0" xmlns="http://www.w3.org/2000/svg"
 width="152.000000pt" height="152.000000pt" viewBox="0 0 152.000000 152.000000"
 preserveAspectRatio="xMidYMid meet">
<metadata>
Created by potrace 1.11, written by Peter Selinger 2001-2013
</metadata>
<g transform="translate(0.000000,152.000000) scale(0.100000,-0.100000)"
fill="#000000" stroke="none">
<path d="M251 1298 c-82 -44 -92 -168 -24 -303 13 -27 29 -52 34 -56 5 -3 -12
-24 -38 -46 -54 -46 -106 -96 -176 -169 l-48 -51 50 -73 c87 -128 184 -218
288 -265 30 -14 58 -36 68 -53 41 -69 144 -88 257 -47 48 17 86 23 158 24 129
1 223 10 304 30 22 5 44 8 48 5 4 -3 8 0 8 5 0 6 6 11 14 11 17 0 157 69 174
87 7 7 17 13 21 13 9 0 36 22 94 77 29 27 36 40 31 57 -15 51 -60 127 -117
196 -85 105 -82 101 -70 108 14 10 42 66 57 116 19 61 12 157 -14 211 -45 93
-124 98 -238 15 l-44 -31 -38 25 c-68 45 -161 69 -243 63 -79 -6 -129 -22
-220 -68 -58 -29 -62 -30 -74 -12 -79 108 -196 167 -262 131z"/>
</g>
</svg>
